<mxfile host="app.diagrams.net" modified="2023-09-26T14:07:45.620Z" agent="Mozilla/5.0 (Windows NT 10.0; Win64; x64) AppleWebKit/537.36 (KHTML, like Gecko) Chrome/116.0.0.0 Safari/537.36" version="21.8.2" etag="vLM3rJdPofUd743yT3lM" type="github">
  <diagram name="第 1 页" id="qPSDG3aAKFBCiZHDRTkf">
    <mxGraphModel>
      <root>
        <mxCell id="0" />
        <mxCell id="1" parent="0" />
      </root>
    </mxGraphModel>
  </diagram>
</mxfile>
